<svg id="Layer_3" data-name="Layer 3" xmlns="http://www.w3.org/2000/svg" viewBox="0 0 432.02 499.65"><defs><style>.cls-1{fill:#e84b33;}.cls-2{fill:#913333;}.cls-3{fill:#702424;}.cls-4{fill:#4060a5;}.cls-5{fill:#8d8dd8;}.cls-6{fill:#ddd;}.cls-7{fill:#e5a376;}.cls-8{fill:#3a2019;stroke:#754c24;stroke-miterlimit:10;stroke-width:9px;}.cls-9{fill:#f19700;}</style></defs><title>logotype</title><path class="cls-1" d="M344,264.56c35.25-21.23,43.28-43.63,45.59-64.75a113.7,113.7,0,0,0-2.24-37.13C371.05,89.57,344.19,48.91,306.69,30c-6.74-3.4-26.57-20.22-34-22.28C255,2.79,252.76,3.31,235,11c-7,3-27.34,17.63-33.85,21.16C164.67,52,139.93,91.62,124.07,162.61a113.91,113.91,0,0,0-2.24,37.3c2.32,21.09,10.38,43.45,45.58,64.65" transform="translate(-36.46 -4.51)"/><path class="cls-2" d="M368,470.61c144,39.45,89.56-119.44,89.56-119.44-31-103.61-111-121.27-111-121.27H166.25s-35.83,8.48-69,44.4c-16.87,18.26-33.06,43.6-43.52,78.51,0,0-50.32,157.25,82.71,117.8l117.88-53.67Z" transform="translate(-36.46 -4.51)"/><path class="cls-1" d="M46.29,222.84c-7.5-1.93-13.81,10.15-6.75,13.32,42.32,19,38.4,76.7,81.65,109.35,52.49,39.62,226,50.39,272.55,9.7,48.42-42.35,20.2-72,72.61-118.94,5.48-4.92-.54-14.55-7.63-12.56C313.32,264.56,196.47,261.56,46.29,222.84Z" transform="translate(-36.46 -4.51)"/><path class="cls-2" d="M362.05,260.56A27.54,27.54,0,0,0,378.18,246c46.2-100.4-20.62-135.83-68.81-151.5a174.89,174.89,0,0,0-107.38,0c-46.92,15.26-112.1,52.66-72.24,144.2.26.59.53,1.18.81,1.76a44.41,44.41,0,0,0,30.95,23.84C193.77,271.09,285.34,286.49,362.05,260.56Z" transform="translate(-36.46 -4.51)"/><path class="cls-3" d="M202,94.45a197.76,197.76,0,0,0-30.13,12.47A85.23,85.23,0,0,0,163.38,144c0,48.84,41.18,88.43,92,88.43s92-39.59,92-88.43a85.23,85.23,0,0,0-8.88-37.94,215.86,215.86,0,0,0-29.06-11.62A174.89,174.89,0,0,0,202,94.45Z" transform="translate(-36.46 -4.51)"/><ellipse class="cls-4" cx="218.91" cy="350.7" rx="138.36" ry="128.19"/><ellipse class="cls-5" cx="216.63" cy="326.8" rx="120.37" ry="104.3"/><ellipse class="cls-6" cx="251.91" cy="278.73" rx="32.15" ry="29.62"/><ellipse class="cls-6" cx="190.59" cy="327.02" rx="7.54" ry="7.75"/><path class="cls-7" d="M99.17,429.31C89.93,474.74,170.64,509,210.1,503.5c21.14-2.93,35.17-18.65,30.49-31C232.48,451,130.73,418.8,99.17,429.31Z" transform="translate(-36.46 -4.51)"/><path class="cls-7" d="M406.57,429.1c9.37,45.41-71.24,79.87-110.72,74.51-21.14-2.86-35.22-18.55-30.57-30.95C273.32,451.21,375,418.68,406.57,429.1Z" transform="translate(-36.46 -4.51)"/><path class="cls-8" d="M507.19,487.6" transform="translate(-36.46 -4.51)"/><path class="cls-8" d="M404.19,461.88" transform="translate(-36.46 -4.51)"/><path class="cls-8" d="M523.53,444.42" transform="translate(-36.46 -4.51)"/><path class="cls-8" d="M410.3,415.44" transform="translate(-36.46 -4.51)"/><path class="cls-8" d="M527.89,396.34" transform="translate(-36.46 -4.51)"/><path class="cls-8" d="M424.89,370.62" transform="translate(-36.46 -4.51)"/><path class="cls-9" d="M360.72,111.89c-16.09-14-42.39-22-42.39-22-9.95-28.6-9.83-42.39-24-58.47C294.33,31.47,346.08,54.45,360.72,111.89Z" transform="translate(-36.46 -4.51)"/></svg>