<svg xmlns="http://www.w3.org/2000/svg" viewBox="0 0 301.58 33.46"><title>logo!</title><g style="isolation:isolate"><g style="isolation:isolate"><path d="M.59,19.19a1.49,1.49,0,0,1-.17-.73.91.91,0,0,1,.48-.9,10.06,10.06,0,0,1,2.85-.26c1.94,0,3.69-.08,5.24-.21s3.93-.42,7.15-.86A25.36,25.36,0,0,1,19.63,16a11.5,11.5,0,0,1,1.59.1,8.74,8.74,0,0,1,1.07.2.83.83,0,0,1,.5.53,1.78,1.78,0,0,1,.19.66c0,.7-.24,1-.73,1-.32,0-.76,0-1.32-.08s-1.33-.08-2.3-.08-2.2.07-3.62.21-2.21.38-2.37.7A43,43,0,0,0,11.87,25q-.53,5.24-.53,7.8a12.36,12.36,0,0,0,.36,2.74,2.67,2.67,0,0,1,.06.35A2,2,0,0,1,11.41,37a1,1,0,0,1-.85.52,1.5,1.5,0,0,1-1.27-.73c-.33-.49-.5-1.86-.5-4.1A118.52,118.52,0,0,1,10,20.24l.06-.51c0-.33-.18-.5-.54-.5-.58,0-1.7.07-3.35.22s-2.83.24-3.53.24A2.92,2.92,0,0,1,.59,19.19Z" transform="translate(-0.42 -12.6)" style="fill:#934e44"/><path d="M24.9,33.75a11.35,11.35,0,0,0,.31,2.5,2.15,2.15,0,0,1,.06.44c0,.18-.16.41-.48.68a1.57,1.57,0,0,1-1,.42c-1,0-1.42-.87-1.42-2.61a51.25,51.25,0,0,1,1.11-8.52,19.1,19.1,0,0,0,.38-2.51,3.43,3.43,0,0,1,.34-1.57,1,1,0,0,1,.95-.65,1.79,1.79,0,0,1,1.18.36,1,1,0,0,1,.43.79,4.25,4.25,0,0,1-.2,1.16,53.77,53.77,0,0,0-1.36,5.54A25.17,25.17,0,0,0,24.9,33.75Zm1.92-16.36c-.2,0-.36-.22-.47-.66a4.27,4.27,0,0,0-.16-.46,4.43,4.43,0,0,1-.39-1.65,1.69,1.69,0,0,1,.69-1.2,2.33,2.33,0,0,1,1.55-.6,1.91,1.91,0,0,1,.95.32c.35.23.53.44.53.64a6.51,6.51,0,0,1-.36,1.64A2.47,2.47,0,0,1,28,17,3,3,0,0,1,26.82,17.39Z" transform="translate(-0.42 -12.6)" style="fill:#934e44"/><path d="M34.78,37.83a4.4,4.4,0,0,1-3.38-1.25A5,5,0,0,1,30.22,33a14.06,14.06,0,0,1,3-8.06q3-4.25,5.64-4.24a2.48,2.48,0,0,1,2,1.28,4.82,4.82,0,0,1,.85,2.72,2.84,2.84,0,0,1-.37,1.49c-.25.41-.5.62-.76.62-.56,0-1-.57-1.2-1.72s-.64-1.84-1.14-1.84q-1.53,0-3.6,3.62A12.9,12.9,0,0,0,32.64,33q0,2.49,2.82,2.49a9.36,9.36,0,0,0,5.07-2A3.32,3.32,0,0,1,42,32.77c.33,0,.5.19.5.57,0,.74-.87,1.68-2.62,2.8A9.45,9.45,0,0,1,34.78,37.83Z" transform="translate(-0.42 -12.6)" style="fill:#934e44"/><path d="M48.82,30.16c.13-.17,1-.95,2.63-2.36s2.6-2.31,3.2-2.91Q58,21.5,59.52,21.5a1,1,0,0,1,1.14,1.1,1.94,1.94,0,0,1-1.13,1.83,34.89,34.89,0,0,0-3.91,2.48c-1.63,1.16-2.45,2-2.45,2.46a9.25,9.25,0,0,0,1.73,2.19,20.46,20.46,0,0,0,3,2.8,4.24,4.24,0,0,0,2.45.9l.48,0c.34,0,.51.13.51.46a1.83,1.83,0,0,1-.8,1.31,3.27,3.27,0,0,1-2.13.66,3,3,0,0,1-1.72-.59,21.53,21.53,0,0,1-3.1-3.2c-1.18-1.44-1.91-2.29-2.21-2.57a1.22,1.22,0,0,0-.73-.42,3.77,3.77,0,0,0-1,.76,2.86,2.86,0,0,0-.94,1.16,29.39,29.39,0,0,0-.08,3v.69a1.23,1.23,0,0,1-.51,1,1.71,1.71,0,0,1-1.12.43,1.27,1.27,0,0,1-1-.36,1.06,1.06,0,0,1-.36-.74,18.57,18.57,0,0,1,.4-2.49q.55-2.84,1-7.57,1.08-11.2,1.67-12.68c.39-1,.94-1.47,1.67-1.47A.72.72,0,0,1,51,13a1.94,1.94,0,0,1,.26,1.05,48.45,48.45,0,0,1-1,6.23A97.82,97.82,0,0,0,48.82,30.16Z" transform="translate(-0.42 -12.6)" style="fill:#934e44"/><path d="M74.55,31.83a25.41,25.41,0,0,1-4.74,3.4,7.71,7.71,0,0,1-3.13,1.07,2.48,2.48,0,0,1-2.22-1.21,5.18,5.18,0,0,1-.77-2.82,21.63,21.63,0,0,1,.92-5.57A17.85,17.85,0,0,1,66,22.75a1.65,1.65,0,0,1,1.43-.62.76.76,0,0,1,.67.49,2.17,2.17,0,0,1,.26,1.09,2.1,2.1,0,0,1-.33,1,14,14,0,0,0-.83,1.52c0,.1-.21.69-.56,1.77a9.54,9.54,0,0,0-.53,3,7.89,7.89,0,0,0,.24,1.56c.16.7.5,1.05,1,1.05a5.35,5.35,0,0,0,2-.49A12.87,12.87,0,0,0,72,31.51a11.23,11.23,0,0,0,2-1.8,4.52,4.52,0,0,0,.73-1.57,24.31,24.31,0,0,0,.3-3.81c.05-1.95.53-2.93,1.42-2.93.52,0,.87.14,1,.42a3.57,3.57,0,0,1,.24,1.59c0,.64,0,1.45-.14,2.41-.1,1.22-.17,2.09-.2,2.61a53.67,53.67,0,0,1-1,8.09,22.33,22.33,0,0,1-2.45,6.8,5,5,0,0,1-4.44,2.73,9,9,0,0,1-5.11-1.5c-1.48-1-2.23-1.85-2.23-2.54a2.18,2.18,0,0,1,.23-.95c.15-.31.34-.47.58-.47s.24.09.38.28a6.68,6.68,0,0,0,6,2.94q2.13,0,3.57-3.73a22.28,22.28,0,0,0,1.59-7Q74.46,32.46,74.55,31.83Z" transform="translate(-0.42 -12.6)" style="fill:#934e44"/><path d="M87.41,22.22c1-.08,2-.17,2.84-.28a20.06,20.06,0,0,1,2.2-.15,2.85,2.85,0,0,1,1.4.21.82.82,0,0,1,.3.72c0,.79-.56,1.22-1.66,1.29-1.42.08-2.72.21-3.91.36a6.88,6.88,0,0,0-1.93.39,26.47,26.47,0,0,0-.88,3.49A26.13,26.13,0,0,0,85,32.58a3.73,3.73,0,0,0,.42,2.14,1.54,1.54,0,0,0,1.28.54c.84,0,2-.63,3.5-1.89a2.46,2.46,0,0,1,1.33-.78c.42,0,.63.23.63.67,0,.71-.67,1.62-2,2.74A6.5,6.5,0,0,1,86,37.67q-3.54,0-3.54-4.17a23,23,0,0,1,.73-4.67,27.83,27.83,0,0,0,.72-3.78c0-.15-.12-.22-.36-.22L82,25c-1.25,0-1.87-.5-1.87-1.5a.75.75,0,0,1,.86-.84h3a.72.72,0,0,0,.54-.28,7,7,0,0,0,.69-1.87c.3-1.06.57-2.11.8-3.14s.7-1.54,1.38-1.54a1.19,1.19,0,0,1,1,.44,1.29,1.29,0,0,1,.35.82,18.64,18.64,0,0,1-.52,2.09Z" transform="translate(-0.42 -12.6)" style="fill:#934e44"/><path d="M99.79,37.73a4.2,4.2,0,0,1-3.32-1.52,5.64,5.64,0,0,1-1.3-3.77A13,13,0,0,1,97.71,25q2.55-3.67,6.09-3.67a4.66,4.66,0,0,1,3.8,1.8,6.62,6.62,0,0,1,1.46,4.29,10.25,10.25,0,0,1-3,7.06Q103,37.74,99.79,37.73Zm-2-5.67a4.32,4.32,0,0,0,.62,2.42,1.9,1.9,0,0,0,1.65.94q2.17,0,4.38-2.4a7.7,7.7,0,0,0,2.2-5.32,4.67,4.67,0,0,0-.85-2.92,2.67,2.67,0,0,0-2.26-1.12q-2.35,0-4,2.89A11,11,0,0,0,97.75,32.06Z" transform="translate(-0.42 -12.6)" style="fill:#934e44"/><path d="M116.75,37.73a4.18,4.18,0,0,1-3.31-1.52,5.6,5.6,0,0,1-1.31-3.77A12.9,12.9,0,0,1,114.68,25q2.53-3.67,6.08-3.67a4.66,4.66,0,0,1,3.8,1.8A6.62,6.62,0,0,1,126,27.42a10.2,10.2,0,0,1-3,7.06C121,36.65,118.92,37.73,116.75,37.73Zm-2-5.67a4.32,4.32,0,0,0,.62,2.42,1.9,1.9,0,0,0,1.65.94q2.19,0,4.38-2.4a7.66,7.66,0,0,0,2.2-5.32,4.73,4.73,0,0,0-.84-2.92,2.69,2.69,0,0,0-2.27-1.12q-2.36,0-4,2.89A11.05,11.05,0,0,0,114.71,32.06Z" transform="translate(-0.42 -12.6)" style="fill:#934e44"/><path d="M132.28,30.16c.12-.17,1-.95,2.62-2.36s2.6-2.31,3.21-2.91q3.38-3.39,4.86-3.39a1,1,0,0,1,1.14,1.1A1.92,1.92,0,0,1,143,24.43a35.82,35.82,0,0,0-3.91,2.48c-1.63,1.16-2.44,2-2.44,2.46a9,9,0,0,0,1.72,2.19,21,21,0,0,0,3,2.8,4.24,4.24,0,0,0,2.45.9l.48,0c.34,0,.52.13.52.46A1.81,1.81,0,0,1,144,37a3.26,3.26,0,0,1-2.12.66,3.05,3.05,0,0,1-1.73-.59,21.14,21.14,0,0,1-3.09-3.2c-1.19-1.44-1.92-2.29-2.22-2.57a1.19,1.19,0,0,0-.73-.42,3.65,3.65,0,0,0-1,.76,2.91,2.91,0,0,0-.95,1.16,29.39,29.39,0,0,0-.08,3v.69a1.23,1.23,0,0,1-.51,1,1.67,1.67,0,0,1-1.11.43,1.28,1.28,0,0,1-1-.36,1,1,0,0,1-.35-.74,17.88,17.88,0,0,1,.39-2.49c.37-1.89.72-4.41,1-7.57q1.08-11.2,1.67-12.68c.39-1,.94-1.47,1.67-1.47a.72.72,0,0,1,.63.41,1.86,1.86,0,0,1,.26,1.05,48.45,48.45,0,0,1-1,6.23A97.72,97.72,0,0,0,132.28,30.16Z" transform="translate(-0.42 -12.6)" style="fill:#934e44"/></g></g><g style="isolation:isolate"><g style="isolation:isolate"><path d="M155.79,32.9a12.15,12.15,0,0,0,.27-2c.1-1,.4-1.44.92-1.44a.56.56,0,0,1,.63.63,3.54,3.54,0,0,1-.11.6,18.55,18.55,0,0,0-.6,4.18,3.28,3.28,0,0,0,.6,2.37c.21.19.31.35.31.47s-.1.28-.31.4a1.21,1.21,0,0,1-.58.18c-.81,0-1.22-1.26-1.22-3.77,0-.16-.06-.25-.18-.25q-.74,0-1.8.09a8.57,8.57,0,0,0-1.52.22,1.51,1.51,0,0,0-.56.24,1.36,1.36,0,0,0-.19.6,5.7,5.7,0,0,0-.08,1v1c0,.56-.26.83-.77.83S150,38,150,37.44a9.14,9.14,0,0,1,.14-1.39c.17-1,.35-2.81.52-5.33a3.09,3.09,0,0,1,.08-.63.78.78,0,0,1,.29-.29.83.83,0,0,1,.5-.16c.38,0,.56.15.56.46,0,0-.06.44-.17,1.17a10.53,10.53,0,0,0-.19,1.71c0,.29.1.43.29.43a19.14,19.14,0,0,0,2.18-.2A5.27,5.27,0,0,0,155.79,32.9Z" transform="translate(-0.42 -12.6)" style="fill:#934e44"/><path d="M164.72,35.16a9.44,9.44,0,0,1-2.17,2.2,3.51,3.51,0,0,1-2,.73,1.37,1.37,0,0,1-1-.5,2,2,0,0,1-.43-1.31A7.41,7.41,0,0,1,161,31.86c1.23-1.59,2.44-2.38,3.65-2.38a1.05,1.05,0,0,1,1,.75.33.33,0,0,0,.32.25c.41,0,.62.17.62.49a3.89,3.89,0,0,1-.07.66,20.36,20.36,0,0,0-.43,3.25c0,1.26.24,2,.72,2.27a.54.54,0,0,1,.35.46c0,.16-.12.32-.34.49a1.11,1.11,0,0,1-.65.24c-.4,0-.73-.27-1-.82A5.72,5.72,0,0,1,164.72,35.16Zm-.48-4.4c-.69,0-1.49.64-2.4,1.93a6,6,0,0,0-1.36,3.21c0,.6.19.9.59.9.57,0,1.37-.58,2.38-1.74A5,5,0,0,0,165,31.88C165,31.13,164.73,30.76,164.24,30.76Z" transform="translate(-0.42 -12.6)" style="fill:#934e44"/><path d="M170.43,33.89a5.26,5.26,0,0,0,3.32-2.39A6.64,6.64,0,0,1,175,30.14a1.75,1.75,0,0,1,1.1-.41.66.66,0,0,1,.47.22.63.63,0,0,1,.24.5c0,.25-.25.45-.73.6a2,2,0,0,0-.72.4,14.22,14.22,0,0,0-1.27,1.34A5.61,5.61,0,0,1,172.73,34s-.06,0-.06.06,0,0,.07.06A4,4,0,0,1,174,35.25a8.09,8.09,0,0,0,1.38,1.61,1.75,1.75,0,0,0,1,.33h.26q.27,0,.27.24a.89.89,0,0,1-.33.62,1.62,1.62,0,0,1-1.11.32,1.69,1.69,0,0,1-1.15-.51A8.13,8.13,0,0,1,173,36.19a5.58,5.58,0,0,0-.77-1,1.11,1.11,0,0,0-.8-.36,3.9,3.9,0,0,0-.58.16q-.48.16-.54.3a5,5,0,0,0-.09,1q0,.9,0,1.44a.67.67,0,0,1-.27.52.9.9,0,0,1-.59.22.69.69,0,0,1-.52-.19.58.58,0,0,1-.19-.39,8.56,8.56,0,0,1,.22-1.33q.38-1.91.75-6.29a1.26,1.26,0,0,1,.32-.76.83.83,0,0,1,.65-.34.38.38,0,0,1,.34.22,1,1,0,0,1,.14.56,2.27,2.27,0,0,1-.1.63A16.61,16.61,0,0,0,170.43,33.89Z" transform="translate(-0.42 -12.6)" style="fill:#934e44"/><path d="M180.3,38.39a2.21,2.21,0,0,1-1.76-.81,3,3,0,0,1-.7-2,6.87,6.87,0,0,1,1.36-4,3.89,3.89,0,0,1,3.25-2,2.48,2.48,0,0,1,2,1,3.51,3.51,0,0,1,.78,2.29,5.46,5.46,0,0,1-1.61,3.77A4.61,4.61,0,0,1,180.3,38.39Zm-1.08-3a2.33,2.33,0,0,0,.33,1.29,1,1,0,0,0,.88.5,3.3,3.3,0,0,0,2.34-1.28A4.11,4.11,0,0,0,183.94,33a2.53,2.53,0,0,0-.45-1.56,1.43,1.43,0,0,0-1.21-.6,2.57,2.57,0,0,0-2.16,1.55A5.81,5.81,0,0,0,179.22,35.37Z" transform="translate(-0.42 -12.6)" style="fill:#934e44"/><path d="M191.45,31.63q-.18,0-.36.36a37.41,37.41,0,0,1-2.45,4.39,2.92,2.92,0,0,0-.18.3c-.65,1.16-1.13,1.74-1.43,1.74s-.61-.19-.61-.58a2.61,2.61,0,0,1,.76-1.45,22.22,22.22,0,0,0,1.93-2.94c.8-1.38,1.44-2.62,1.94-3.72a.44.44,0,0,1,.42-.3,1.27,1.27,0,0,1,.42.11.69.69,0,0,1,.38.23,8.34,8.34,0,0,1,.39,1.45q1,4.78,2,5.68a1.63,1.63,0,0,1,.3.29.41.41,0,0,1,0,.21.71.71,0,0,1-.15.44.74.74,0,0,1-.31.25,2,2,0,0,1-.61.06c-.11,0-.36-.27-.76-.81a15.17,15.17,0,0,1-1.41-4.41A8.45,8.45,0,0,0,191.45,31.63Z" transform="translate(-0.42 -12.6)" style="fill:#934e44"/><path d="M202.57,28.91a4.32,4.32,0,0,0-.69-1.71,2.83,2.83,0,0,0-1.1-.75,3.53,3.53,0,0,0-1.23-.26,1.86,1.86,0,0,0-.62.16,3.85,3.85,0,0,0-.63.29,1.11,1.11,0,0,1-.56.18c-.2,0-.29-.1-.29-.31a1.63,1.63,0,0,1,.5-.93,2.26,2.26,0,0,1,1.79-.6h.34a3.93,3.93,0,0,1,2.25.67,3.59,3.59,0,0,1,1.38,1.91,10.74,10.74,0,0,1,.42,3.34,8.73,8.73,0,0,1-.9,3.44,7.58,7.58,0,0,1-2.29,3.07,4.85,4.85,0,0,1-2.95,1,1.37,1.37,0,0,1-1.05-.65,2.59,2.59,0,0,1-.49-1.61,6.13,6.13,0,0,1,.77-3.13,8.63,8.63,0,0,1,1.74-2.2,7.26,7.26,0,0,1,2.67-1.36,7.12,7.12,0,0,0,.77-.26A.29.29,0,0,0,202.57,28.91Zm.21,1.59A6.31,6.31,0,0,0,200,31.66a6.15,6.15,0,0,0-2.18,4.56,1.68,1.68,0,0,0,.12.63c.08.19.17.29.27.29a2.77,2.77,0,0,0,1.05-.2,4.51,4.51,0,0,0,1.17-.85,7.14,7.14,0,0,0,1.24-1.6,8,8,0,0,0,.81-1.83,6,6,0,0,0,.27-1.36C202.78,31,202.79,30.72,202.78,30.5Z" transform="translate(-0.42 -12.6)" style="fill:#934e44"/><path d="M210.84,35.24A11.21,11.21,0,0,1,208.46,37a4.43,4.43,0,0,1-1.82.64,1.35,1.35,0,0,1-1.16-.63,2.57,2.57,0,0,1-.43-1.52,11.64,11.64,0,0,1,.5-3.12,6.53,6.53,0,0,1,.77-2.05,1,1,0,0,1,.7-.24.4.4,0,0,1,.37.28,1.24,1.24,0,0,1,.13.56,1.11,1.11,0,0,1-.18.51,7.27,7.27,0,0,0-1,3.67,1.89,1.89,0,0,0,.16.77.54.54,0,0,0,.5.33,3,3,0,0,0,1.06-.26,7,7,0,0,0,1.42-.86,5.67,5.67,0,0,0,1.06-1,2.24,2.24,0,0,0,.39-.84,12,12,0,0,0,.16-2c0-1,.28-1.56.76-1.56a.59.59,0,0,1,.55.22,2,2,0,0,1,.12.85c0,.31-.05,1-.14,2,0,.24,0,.45,0,.65A19.66,19.66,0,0,1,211.07,40c-.68,1.58-1.67,2.37-3,2.37a4.8,4.8,0,0,1-2.72-.8c-.79-.54-1.19-1-1.19-1.36a1.19,1.19,0,0,1,.12-.51c.08-.17.18-.25.31-.25s.13,0,.2.15A3.48,3.48,0,0,0,208,41.14a2.18,2.18,0,0,0,2-1.65A13.94,13.94,0,0,0,210.84,35.24Z" transform="translate(-0.42 -12.6)" style="fill:#934e44"/><path d="M220,34.6A10.75,10.75,0,0,1,218,37.2a3,3,0,0,1-1.94.93,1.48,1.48,0,0,1-1-.61,2.71,2.71,0,0,1-.54-1.85,13.71,13.71,0,0,1,.5-3,11.81,11.81,0,0,0,.41-2.34.75.75,0,0,1,.71-.47.65.65,0,0,1,.52.23.77.77,0,0,1,.2.48,4.9,4.9,0,0,1-.38,1.56,9.82,9.82,0,0,0-.73,3.36c0,.86.2,1.29.59,1.29s1.15-.43,1.93-1.29a10.84,10.84,0,0,0,2-3.6,5.5,5.5,0,0,1,.54-1.2.65.65,0,0,1,.55-.27c.36,0,.54.23.54.7a3.33,3.33,0,0,1-.15.57,12.36,12.36,0,0,0-.47,3.23,3.28,3.28,0,0,0,.6,2.37c.21.19.31.35.31.47s-.1.28-.31.4a1.21,1.21,0,0,1-.58.18c-.36,0-.66-.27-.88-.81a6.5,6.5,0,0,1-.34-2.4v-.26C220,34.78,220,34.69,220,34.6Zm2.27-8a1.13,1.13,0,0,1-.09.38,2.59,2.59,0,0,1-.23.48,4.59,4.59,0,0,1-.35.5,2.79,2.79,0,0,1-.48.43,3.13,3.13,0,0,1-.45.24,3.58,3.58,0,0,1-.55.19,2.94,2.94,0,0,1-.59.12,3.9,3.9,0,0,1-.58.05,3.41,3.41,0,0,1-.85-.11,3.51,3.51,0,0,1-.77-.29,3.29,3.29,0,0,1-.63-.46,2.4,2.4,0,0,1-.47-.59,2.25,2.25,0,0,1-.11-.22,2.76,2.76,0,0,1-.08-.27,1.12,1.12,0,0,1-.06-.23c0-.06,0-.11,0-.13a.83.83,0,0,1,.06-.34.67.67,0,0,1,.13-.22.52.52,0,0,1,.19-.11.63.63,0,0,1,.19,0A.75.75,0,0,1,217,26a.34.34,0,0,1,.18.27,2.49,2.49,0,0,0,.14.68,1.42,1.42,0,0,0,.34.53,1.75,1.75,0,0,0,.6.37,2.41,2.41,0,0,0,.89.14,1.57,1.57,0,0,0,.29,0l.34-.07.34-.11a1.36,1.36,0,0,0,.27-.14,1.18,1.18,0,0,0,.33-.3,1.69,1.69,0,0,0,.23-.36,3,3,0,0,0,.17-.37c0-.13.08-.24.11-.35a.64.64,0,0,1,.23-.33.49.49,0,0,1,.3-.1.57.57,0,0,1,.44.16A.77.77,0,0,1,222.3,26.55Z" transform="translate(-0.42 -12.6)" style="fill:#934e44"/><path d="M233.36,35.09A7.71,7.71,0,0,0,231,38.18a3.06,3.06,0,0,1-.45.77c-.62,0-.93-.32-.93-.86q0-1.2,2.67-3.63l.37-.35a7.43,7.43,0,0,1-1.55-3.59q0-1.11.93-1.11a.41.41,0,0,1,.39.23,3.17,3.17,0,0,1,.19,1,5.5,5.5,0,0,0,1.07,2.63A12,12,0,0,0,236.63,30a2.76,2.76,0,0,1,.39-.6.58.58,0,0,1,.38-.12.78.78,0,0,1,.53.22.71.71,0,0,1,.24.55q0,.78-3.79,4.28a9.37,9.37,0,0,0,2.78,2.51l.34.21a.61.61,0,0,1,0,.22.88.88,0,0,1-.24.6.79.79,0,0,1-.59.27Q235.64,38.12,233.36,35.09Z" transform="translate(-0.42 -12.6)" style="fill:#934e44"/><path d="M241.55,33.28c.19,0,.41-.07.65-.09a8.77,8.77,0,0,0,2.14-.36,2.62,2.62,0,0,0-.49-1.43,1.26,1.26,0,0,0-1-.53,3.37,3.37,0,0,0-2.12.88,6.7,6.7,0,0,1-.54.43.49.49,0,0,1-.25.06c-.33,0-.5-.18-.5-.54,0-.52.41-1,1.25-1.36a5.75,5.75,0,0,1,2.47-.58,2.52,2.52,0,0,1,2.37,1.93,6.39,6.39,0,0,1,.27,1.7,5.3,5.3,0,0,1-1.25,3.3,4.72,4.72,0,0,1-4,1.59,1.79,1.79,0,0,1-1.32-.62,1.75,1.75,0,0,1-.59-1.19.37.37,0,0,1,.23-.35.83.83,0,0,1,.44-.13.44.44,0,0,1,.3.1,1.59,1.59,0,0,1,.31.47,1.1,1.1,0,0,0,1.08.58,3.58,3.58,0,0,0,1.78-.51,2.61,2.61,0,0,0,1.2-1.37,4.53,4.53,0,0,0,.31-1.06c0-.12,0-.18-.13-.18s-.41.07-1,.19a10,10,0,0,1-2,.19.62.62,0,0,1-.44-.17.51.51,0,0,1-.17-.37c0-.24.28-.42.85-.54Z" transform="translate(-0.42 -12.6)" style="fill:#934e44"/><path d="M257.9,34.6a10.75,10.75,0,0,1-2,2.6,3.07,3.07,0,0,1-1.94.93,1.47,1.47,0,0,1-1-.61,2.71,2.71,0,0,1-.54-1.85,8.21,8.21,0,0,1,.13-1.41,8.54,8.54,0,0,1-1.9,2.52,3.36,3.36,0,0,1-2.08,1.06,1.49,1.49,0,0,1-1-.52,1.89,1.89,0,0,1-.52-1.39,9.5,9.5,0,0,1,.09-1.52c0-.3.08-.62.12-.95s.06-.5.1-.73a8.57,8.57,0,0,0,.24-2.17.71.71,0,0,1,.76-.55.66.66,0,0,1,.45.19.79.79,0,0,1,.23.63,6.71,6.71,0,0,1-.32,1.8,8.94,8.94,0,0,0-.43,2.56,3.81,3.81,0,0,0,.09.94.39.39,0,0,0,.4.34c.69,0,1.46-.61,2.32-1.83a17.19,17.19,0,0,0,2.05-3.81c.23-.6.51-.9.85-.9a.65.65,0,0,1,.52.23.73.73,0,0,1,.2.48,4.82,4.82,0,0,1-.39,1.56,9.67,9.67,0,0,0-.72,3.28c0,.86.19,1.29.59,1.29a1.6,1.6,0,0,0,.65-.19,4,4,0,0,0,1-.76,9,9,0,0,0,1.11-1.42,8,8,0,0,0,.69-1.22c.09-.25.28-.84.57-1.78a4.85,4.85,0,0,1,.5-1.24.68.68,0,0,1,.6-.32c.35,0,.53.23.53.7a3.33,3.33,0,0,1-.15.57,13.62,13.62,0,0,0-.37,1.9,15,15,0,0,0-.14,1.9,3.28,3.28,0,0,0,.6,2.37c.21.19.31.35.31.47s-.11.28-.32.4a1.17,1.17,0,0,1-.57.18c-.37,0-.66-.27-.88-.81a6.5,6.5,0,0,1-.34-2.4v-.26A2.35,2.35,0,0,1,257.9,34.6Z" transform="translate(-0.42 -12.6)" style="fill:#934e44"/><path d="M267.75,31.82q-.72,0-3.11,4.31a15.42,15.42,0,0,1-.94,1.57,1.17,1.17,0,0,1-.49.23,2.07,2.07,0,0,1-.58.1c-.35,0-.53-.68-.53-2a32,32,0,0,1,.49-4.15,12,12,0,0,0,.21-1.75c0-.34.15-.51.46-.51.58,0,.87.42.87,1.25a18,18,0,0,1-.29,2.3c-.23,1.3-.34,2.09-.35,2.37a11.25,11.25,0,0,0,1.42-2,15.57,15.57,0,0,1,2-2.76,1.89,1.89,0,0,1,1.3-.58c.34,0,.61.23.81.68a11,11,0,0,1,.36,3.24,3.37,3.37,0,0,0,.12.95c.07.21.12.32.15.32.24,0,.77-.84,1.59-2.5a9.36,9.36,0,0,1,1.28-2,1.82,1.82,0,0,1,1.38-.69,1,1,0,0,1,.92.65,6.92,6.92,0,0,1,.42,1.94,16,16,0,0,0,.36,2.37,1.86,1.86,0,0,0,.9,1.39c.3.14.45.3.45.49a.78.78,0,0,1-.38.56,1.19,1.19,0,0,1-.69.29,1.37,1.37,0,0,1-1.11-.77,8.69,8.69,0,0,1-.75-3.31,12,12,0,0,0-.21-1.45c-.06-.29-.17-.43-.32-.43s-.48.21-.77.62A24.79,24.79,0,0,0,271.23,35,13.17,13.17,0,0,1,270,37a1.08,1.08,0,0,1-.77.5.84.84,0,0,1-.61-.27,1.3,1.3,0,0,1-.33-.65,18.1,18.1,0,0,1-.15-1.86A7.56,7.56,0,0,0,267.75,31.82Z" transform="translate(-0.42 -12.6)" style="fill:#934e44"/><path d="M285,35.35q0,.8-1.41,1.92a4.63,4.63,0,0,1-2.91,1.13,2.54,2.54,0,0,1-1.94-.74,3,3,0,0,1-.68-2.07,7,7,0,0,1,1.51-4.25,4.17,4.17,0,0,1,3.29-2,1.28,1.28,0,0,1,1.33,1.31,3.15,3.15,0,0,1-1.18,2.3,15,15,0,0,1-3.15,2.16.62.62,0,0,0-.41.55,1.44,1.44,0,0,0,.37,1,1.47,1.47,0,0,0,1.11.39,4.88,4.88,0,0,0,3.43-1.86c.18-.17.31-.26.39-.26S285,35.09,285,35.35Zm-5.43-1.22q3.31-2,3.32-3.16c0-.31-.14-.47-.42-.47a2.44,2.44,0,0,0-1.63,1.05A6.25,6.25,0,0,0,279.55,34.13Z" transform="translate(-0.42 -12.6)" style="fill:#934e44"/><path d="M286.44,36.65l0-.17a2.56,2.56,0,0,1,.49-1.65,7.77,7.77,0,0,1,2.85-2c1-.49,1.45-.93,1.45-1.33A.57.57,0,0,0,291,31a1,1,0,0,0-.47-.17,6.72,6.72,0,0,0-2.25.83.5.5,0,0,1-.15.07c-.43,0-.64-.15-.64-.45,0-.49.42-.9,1.26-1.22a6.22,6.22,0,0,1,2.21-.49,2.07,2.07,0,0,1,1.22.46,1.46,1.46,0,0,1,.64,1.25,2.16,2.16,0,0,1-.41,1.23A6.67,6.67,0,0,1,290.29,34a8.83,8.83,0,0,0-1.84,1.23,1.54,1.54,0,0,0-.48,1.1.56.56,0,0,0,.41.58,2,2,0,0,0,.63.14,5.59,5.59,0,0,0,2.62-.6,1.52,1.52,0,0,1,.6-.21c.27,0,.4.15.4.46s-.37.84-1.11,1.14a7.3,7.3,0,0,1-2.81.46,2.68,2.68,0,0,1-1.51-.46A1.57,1.57,0,0,1,286.44,36.65Z" transform="translate(-0.42 -12.6)" style="fill:#934e44"/><path d="M299.9,34.6a10.75,10.75,0,0,1-2,2.6,3.07,3.07,0,0,1-1.94.93,1.47,1.47,0,0,1-1.05-.61,2.71,2.71,0,0,1-.54-1.85,13.56,13.56,0,0,1,.49-3,11.31,11.31,0,0,0,.42-2.34.74.74,0,0,1,.71-.47.65.65,0,0,1,.52.23.77.77,0,0,1,.2.48,4.71,4.71,0,0,1-.39,1.56,10,10,0,0,0-.72,3.36c0,.86.19,1.29.59,1.29s1.15-.43,1.93-1.29a10.84,10.84,0,0,0,2-3.6,5.63,5.63,0,0,1,.53-1.2.68.68,0,0,1,.56-.27c.36,0,.53.23.53.7a3.33,3.33,0,0,1-.15.57,12.33,12.33,0,0,0-.46,3.23,3.28,3.28,0,0,0,.6,2.37c.21.19.31.35.31.47s-.11.28-.32.4a1.17,1.17,0,0,1-.57.18c-.37,0-.66-.27-.88-.81a6.5,6.5,0,0,1-.34-2.4v-.26A2.35,2.35,0,0,1,299.9,34.6Z" transform="translate(-0.42 -12.6)" style="fill:#934e44"/></g></g></svg>