<?xml version="1.0" encoding="iso-8859-1"?>
<!-- Generator: Adobe Illustrator 19.0.0, SVG Export Plug-In . SVG Version: 6.00 Build 0)  -->
<svg version="1.1" id="Capa_1" xmlns="http://www.w3.org/2000/svg" xmlns:xlink="http://www.w3.org/1999/xlink" x="0px" y="0px"
	 viewBox="0 0 512.001 512.001" style="enable-background:new 0 0 512.001 512.001;" xml:space="preserve">
<g>
	<g>
		<path d="M485.03,121.646l-59.864-11.434c-11.672-20.752-26.59-39.304-44.399-55.223l-8.879-46.484
			c-0.685-3.584-3.821-6.178-7.47-6.178s-6.785,2.594-7.47,6.178l-4.751,24.869C317.69,11.507,278.038,0,236.796,0
			c-44.083,0-86.154,13.059-122.179,37.847c-3.568,2.455-4.426,7.357-1.843,10.834v0.001c2.427,3.267,7.014,4.073,10.366,1.764
			C156.641,27.369,195.78,15.21,236.796,15.21c40.366,0,79.088,11.855,112.314,34.321l-10.308,53.97l-94.996,18.146
			c-3.585,0.685-6.178,3.821-6.178,7.47s2.594,6.785,6.178,7.47l94.996,18.146l18.146,94.996c0.685,3.585,3.821,6.178,7.47,6.178
			c3.649,0,6.785-2.594,7.47-6.178l18.146-94.996l35.72-6.823c7.855,21.778,11.846,44.648,11.846,68.085
			c0,32.28-7.84,64.363-22.675,92.778c-13.99,26.799-34.203,50.427-58.527,68.501h-24.779c-4.2,0-7.605,3.405-7.605,7.605v0.001
			c0,4.2,3.405,7.605,7.605,7.605h51.187c10.21,0,18.486,8.277,18.486,18.486v11.085c0,10.21-8.277,18.486-18.486,18.486H90.804
			c-10.21,0-18.486-8.277-18.486-18.486v-11.085c0-10.21,8.276-18.486,18.486-18.486h205.323c4.2,0,7.605-3.405,7.605-7.605v-0.001
			c0-4.2-3.405-7.605-7.605-7.605H117.205c-24.326-18.073-44.542-41.701-58.531-68.5c-14.832-28.413-22.671-60.497-22.671-92.779
			c0-54.205,22.077-106.256,60.813-143.951c2.916-2.838,3.025-7.491,0.294-10.509c-2.906-3.212-7.885-3.331-10.987-0.308
			c-41.615,40.542-65.33,96.499-65.33,154.769c0,34.723,8.437,69.239,24.398,99.817c12.072,23.125,28.458,44.049,47.97,61.462
			h-2.359c-18.61,0-33.695,15.086-33.695,33.695v11.086c0,13.6,8.102,25.334,19.729,30.653v51.687c0,4.2,3.405,7.605,7.605,7.605
			h304.727c4.2,0,7.605-3.405,7.605-7.605v-51.687c11.627-5.32,19.728-17.054,19.728-30.653v-11.085
			c0-18.61-15.086-33.696-33.696-33.696h-2.364c19.51-17.414,35.896-38.337,47.969-61.461
			c15.964-30.579,24.401-65.096,24.401-99.817c0-24.392-4.018-48.221-11.94-70.972l44.16-8.435c3.585-0.685,6.178-3.821,6.178-7.47
			C491.208,125.47,488.614,122.332,485.03,121.646z M381.562,496.79L381.562,496.79H92.045v-41.039h289.517V496.79z M405.056,106.37
			l-15.024-2.87l-4.219-22.09C392.878,89.217,399.304,97.551,405.056,106.37z M382.105,140.76c-3.063,0.585-5.458,2.98-6.043,6.043
			l-11.644,60.962l-11.644-60.962c-0.585-3.063-2.98-5.458-6.043-6.043l-60.962-11.644l60.962-11.644
			c3.063-0.585,5.458-2.98,6.043-6.043l11.644-60.963l11.644,60.963c0.585,3.063,2.98,5.458,6.043,6.043l60.963,11.644
			L382.105,140.76z"/>
	</g>
</g>
<g>
</g>
<g>
</g>
<g>
</g>
<g>
</g>
<g>
</g>
<g>
</g>
<g>
</g>
<g>
</g>
<g>
</g>
<g>
</g>
<g>
</g>
<g>
</g>
<g>
</g>
<g>
</g>
<g>
</g>
</svg>
