<?xml version="1.0" encoding="utf-8"?>
<!-- Svg Vector Icons : http://www.onlinewebfonts.com/icon -->
<!DOCTYPE svg PUBLIC "-//W3C//DTD SVG 1.1//EN" "http://www.w3.org/Graphics/SVG/1.1/DTD/svg11.dtd">
<svg version="1.1" xmlns="http://www.w3.org/2000/svg" xmlns:xlink="http://www.w3.org/1999/xlink" x="0px" y="0px" viewBox="0 0 1000 1000" enable-background="new 0 0 1000 1000" xml:space="preserve">
<metadata> Svg Vector Icons : http://www.onlinewebfonts.com/icon </metadata>
<g><g transform="translate(0.000000,512.000000) scale(0.100000,-0.100000)"><path d="M4357.1,5008.3C2432.1,4860.8,1026.1,4236.3,687,3374.4c-97.7-247.1-86.2-503.8,32.6-802.6l65.1-164.7l-67-166.7c-84.3-208.8-172.4-522.9-212.6-756.6c-47.9-270.1-42.1-856.2,9.6-1153.1C620-265.1,916.9-893.4,1324.9-1380c166.6-199.2,471.2-498,637.9-624.5c1515.2-1158.9,3612.7-1344.7,5319.4-475c1141.6,582.3,1950,1588,2177.9,2710.4c132.2,649.4,68.9,1367.7-174.3,1994.1l-76.6,193.5l59.4,122.6c78.5,160.9,103.4,308.4,91.9,551.7c-9.6,227.9-34.5,298.8-178.1,522.9c-203.1,314.2-601.5,616.8-1105.3,840.9c-595.7,262.4-1279.6,432.9-2101.3,522.9C5644.4,5015.9,4686.6,5033.2,4357.1,5008.3z M5646.3,4606c1042-57.5,2141.5-367.8,2758.3-779.6c224.1-149.4,406.1-335.2,490.4-505.7c65.1-128.3,69-149.4,69-314.1c0-159-5.7-187.7-61.3-296.9C8569.4,2041.1,7211.3,1514.4,5539,1403.3c-544-36.4-1538.2,21.1-2091.7,118.8c-591.9,107.3-1243.2,318-1628.2,530.6c-475,262.4-771.9,595.7-798.8,900.3c-53.6,595.7,798.8,1187.6,2147.3,1490.3C3872.5,4600.3,4728.8,4657.8,5646.3,4606z"/><path d="M4500.8,4242.1c-314.1-26.8-1132.1-176.2-1107.2-203c5.7-3.8,243.3,1.9,530.6,11.5c578.5,23,1285.3,1.9,1748.9-49.8c693.4-74.7,1337-247.1,1701-454c139.8-78.5,302.6-233.7,346.7-329.5c210.7-459.7-628.3-898.4-2051.5-1072.7c-998-120.7-2036.2-61.3-2823.5,162.8c-187.7,53.6-346.7,93.8-350.5,90c-11.5-11.5,749-293.1,913.7-337.1c201.1-55.5,580.4-130.3,831.3-166.7c296.9-40.2,1275.7-57.5,1595.6-26.8c1191.5,113,2116.6,496.1,2333.1,963.5c34.5,72.8,47.9,132.2,47.9,226c0,519.1-777.7,953.9-2059.2,1147.4c-218.4,34.5-377.4,42.1-862,47.9C4970.1,4255.5,4611.9,4251.7,4500.8,4242.1z"/><path d="M8511.9-1812.9c-51.7-57.5-500-392.7-710.7-530.6L7625-2458.4l49.8-74.7c153.2-227.9,444.4-532.5,626.4-657c120.7-82.4,260.5-134.1,358.2-134.1c63.2,0,90,11.5,141.7,63.2c34.5,34.5,72.8,97.7,84.3,137.9c53.6,195.4,1.9,595.7-120.7,934.8c-78.5,214.5-166.6,402.3-195.4,409.9C8557.9-1774.6,8533-1789.9,8511.9-1812.9z"/><path d="M1426.4-2015.9c-164.7-381.2-239.4-681.9-239.4-971.2c0-203,24.9-281.6,107.3-354.4c151.3-134.1,398.4-44.1,710.7,254.8c168.6,160.9,390.8,423.3,444.4,522.9c17.2,36.4,15.3,44.1-19.2,53.6c-84.3,26.8-609.1,404.2-806.4,576.6c-51.7,46-99.6,84.3-109.2,84.3C1506.9-1849.3,1466.6-1924,1426.4-2015.9z"/><path d="M4416.5-3375.9c23-446.3,113-858.1,241.4-1101.4c72.8-137.9,243.3-302.6,312.2-302.6c137.9,0,266.2,118.8,379.3,350.5c126.4,258.6,159,421.4,231.8,1155l13.4,116.9l-118.8,13.4c-65.1,5.7-333.3,11.5-595.7,11.5h-477L4416.5-3375.9z"/></g></g>
</svg>