<?xml version="1.0" encoding="utf-8"?>
<!-- Generator: Adobe Illustrator 23.0.2, SVG Export Plug-In . SVG Version: 6.00 Build 0)  -->
<svg version="1.1" id="Layer_1" xmlns="http://www.w3.org/2000/svg" xmlns:xlink="http://www.w3.org/1999/xlink" x="0px" y="0px"
	 viewBox="0 0 256 256" style="enable-background:new 0 0 256 256;" xml:space="preserve">
<g>
	<g>
		<path d="M158.47,70.42c-24.01-11.12-47.28-10.03-68.91,5.86C72.31,88.94,64,106.62,63.38,128.16c10.84,0,21.49,0,32.13,0
			c-14.34,14.32-28.59,28.57-42.75,42.71c-14.11-14.12-28.38-28.4-42.61-42.64c10.4,0,21,0,31.39,0
			c2.63-39.91,21.42-68.24,59.35-81.87c25.43-9.14,50.14-5.34,73.27,8.49C168.86,60.11,163.66,65.27,158.47,70.42z"/>
		<path d="M82.58,201.39c5.34-5.36,10.5-10.54,15.67-15.73c42.41,23.25,95.4-8.7,94.96-57.51c-10.64,0-21.29,0-31.89,0
			c14.33-14.32,28.61-28.59,42.83-42.81c14.07,14.1,28.32,28.38,42.61,42.71c-10.56,0-21.16,0-31.51,0
			c-2.7,40.2-21.7,68.61-59.99,82.07C130.01,219,105.51,215.1,82.58,201.39z"/>
	</g>
</g>
</svg>
