<svg height="512pt" viewBox="0 0 512.00058 512" width="512pt" xmlns="http://www.w3.org/2000/svg"><path d="m441.964844 391.980469c-5.519532-.035157-10.570313-3.097657-13.15625-7.972657l-17.511719-33.019531-28.671875-23.210937c-3.550781-2.871094-5.597656-7.203125-5.566406-11.765625.035156-4.5625 2.144531-8.867188 5.734375-11.6875l26.925781-21.160157 19.175781-35.097656c2.628907-4.8125 7.679688-7.808594 13.160157-7.808594h.09375c5.519531.035157 10.574218 3.097657 13.160156 7.972657l17.511718 33.023437 28.671876 23.207032c3.546874 2.871093 5.59375 7.203124 5.5625 11.765624s-2.144532 8.867188-5.730469 11.6875l-26.929688 21.160157-19.171875 35.097656c-2.632812 4.816406-7.683594 7.808594-13.164062 7.808594-.03125 0-.0625 0-.09375 0zm19.027344-100.996094h.011718zm0 0" fill="#ffcd00"/><path d="m170.367188 154.289062-19.589844-27.054687-27.054688-19.589844c-3.898437-2.820312-6.203125-7.339843-6.203125-12.148437s2.308594-9.328125 6.203125-12.148438l27.054688-19.589844 19.589844-27.058593c2.820312-3.894531 7.339843-6.199219 12.148437-6.199219s9.328125 2.304688 12.148437 6.199219l19.589844 27.058593 27.054688 19.589844c3.898437 2.820313 6.203125 7.339844 6.203125 12.148438s-2.308594 9.328125-6.203125 12.148437l-27.054688 19.589844-19.589844 27.054687c-2.820312 3.898438-7.339843 6.203126-12.148437 6.203126s-9.328125-2.304688-12.148437-6.203126zm0 0" fill="#ffe277"/><path d="m446.957031 143.652344c-5.578125-.015625-10.6875-3.128906-13.261719-8.074219l-16.589843-31.890625-28.550781-19.46875c-4.113282-2.804688-6.566407-7.464844-6.546876-12.441406.015626-4.976563 2.5-9.621094 6.628907-12.398438l27.867187-18.730468 17.234375-32.652344c2.597657-4.917969 7.703125-7.996094 13.265625-7.996094h.042969c5.578125.015625 10.6875 3.128906 13.261719 8.074219l16.59375 31.890625 28.550781 19.46875c4.109375 2.804687 6.5625 7.46875 6.546875 12.445312-.015625 4.976563-2.5 9.621094-6.632812 12.394532l-27.863282 18.730468-17.234375 32.652344c-2.597656 4.917969-7.703125 7.996094-13.265625 7.996094-.015625 0-.03125 0-.046875 0zm18.367188-93.417969h.011719zm0 0" fill="#ffcd00"/><path d="m89.242188 507.605469-84.847657-84.847657c-5.859375-5.855468-5.859375-15.355468 0-21.210937l236.484375-236.488281c5.859375-5.855469 15.355469-5.855469 21.214844 0l84.847656 84.847656c5.855469 5.859375 5.855469 15.355469 0 21.214844l-236.488281 236.484375c-2.929687 2.929687-6.769531 4.394531-10.605469 4.394531-3.839844 0-7.679687-1.464844-10.605468-4.394531zm0 0" fill="#00347b"/><path d="m46.816406 465.183594-42.421875-42.425782c-5.859375-5.855468-5.859375-15.355468 0-21.210937l236.484375-236.488281c5.859375-5.855469 15.355469-5.855469 21.214844 0l42.421875 42.425781zm0 0" fill="#0051bd"/><path d="m215.292969 189.511719 32.347656-32.496094v-.003906l49.621094-49.621094c2.84375-2.84375 6.703125-4.441406 10.726562-4.441406 4.019531 0 7.878907 1.597656 10.722657 4.441406l85.808593 85.808594c5.925781 5.925781 5.925781 15.527343 0 21.453125l-82.074219 82.097656zm0 0" fill="#e0d2cd"/><path d="m268.867188 243.132812-53.574219-53.621093 32.347656-32.496094 49.621094-49.621094c2.84375-2.847656 6.703125-4.445312 10.726562-4.445312 4.019531 0 7.878907 1.597656 10.722657 4.445312l42.949218 42.945313zm0 0" fill="#f5f0eb"/><path d="m388.636719 59.378906 27.867187-18.730468 17.234375-32.652344c2.597657-4.917969 7.703125-7.996094 13.265625-7.996094h.042969c5.578125.015625 10.6875 3.128906 13.261719 8.074219l16.59375 31.890625.097656.066406-59.964844 63.613281-28.480468-19.425781c-4.109376-2.804688-6.5625-7.464844-6.546876-12.441406.015626-4.976563 2.5-9.621094 6.628907-12.398438zm0 0" fill="#ffe277"/></svg>